<?xml version="1.0" encoding="utf-8"?>
<svg width="13px" height="12px" viewbox="0 0 13 12" version="1.1" xmlns:xlink="http://www.w3.org/1999/xlink" xmlns="http://www.w3.org/2000/svg">
  <defs>
    <linearGradient x1="0.2544715" y1="0.22262877" x2="0.8753693" y2="1.091658" id="gradient_1">
      <stop offset="0" stop-color="#6B32FF" />
      <stop offset="0.25027123" stop-color="#3023AE" />
      <stop offset="1" stop-color="#C96DD8" />
    </linearGradient>
  </defs>
  <path d="M12.1726 8.8241C11.9653 8.56962 11.6919 8.40966 11.4016 8.34393C10.9119 8.23327 10.4983 7.90678 10.2452 7.4732L10.1801 7.36185C9.92352 6.92248 9.8666 6.39872 10.003 5.9086C10.1328 5.44254 10.0145 4.92198 9.64787 4.55538C9.45911 4.36661 9.22947 4.24367 8.98735 4.18655C8.49617 4.07067 8.07487 3.75684 7.82028 3.32094L7.75417 3.20766C7.49814 2.76925 7.43996 2.24665 7.57605 1.7576C7.71397 1.26226 7.57189 0.705348 7.14913 0.337201C6.6304 -0.114646 5.84124 -0.112036 5.32512 0.342904C4.71911 0.877388 4.69737 1.80293 5.25988 2.36554C5.44835 2.55391 5.67742 2.67675 5.91905 2.73407C6.40946 2.85034 6.83018 3.16388 7.08438 3.5992L7.15271 3.71634C7.40855 4.15446 7.46634 4.67658 7.33103 5.16554C7.2022 5.63111 7.32079 6.15061 7.68671 6.51663C7.8748 6.70472 8.10347 6.82737 8.34452 6.88478C8.83416 7.00154 9.25421 7.31488 9.50811 7.74962L9.58051 7.87353C9.83663 8.31233 9.89404 8.83521 9.75825 9.32485C9.62893 9.79062 9.74733 10.3107 10.1135 10.6769C10.6764 11.2397 11.6027 11.2177 12.1369 10.6107C12.5796 10.1078 12.5958 9.34351 12.1726 8.8241ZM7.31895 8.82427C7.11241 8.57056 6.84014 8.4107 6.55086 8.34459C6.05997 8.23247 5.64514 7.90579 5.39142 7.47095L5.33266 7.37005C5.07286 6.92487 5.01816 6.39541 5.15221 5.89775C5.28501 5.40521 5.14187 4.85381 4.7225 4.48837C4.20367 4.03643 3.41441 4.03894 2.89839 4.49407C2.29228 5.02846 2.27054 5.954 2.83305 6.51661C3.01814 6.7017 3.24247 6.82348 3.47936 6.88205C3.97635 7.00489 4.40461 7.31901 4.66257 7.7612L4.72143 7.86229C4.98133 8.30786 5.03536 8.83751 4.9015 9.33565C4.77711 9.79871 4.89647 10.3135 5.25988 10.6769C5.82269 11.2397 6.7489 11.2177 7.28319 10.6107C7.72586 10.1078 7.74209 9.34368 7.31895 8.82427ZM2.77352 9.69639C2.77352 10.4623 2.15263 11.0832 1.38676 11.0832C0.620891 11.0832 0 10.4623 0 9.69639C0 8.93043 0.620891 8.30963 1.38676 8.30963C2.15263 8.30963 2.77352 8.93043 2.77352 9.69639L2.77352 9.69639Z" id="Fill-1" fill="url(#gradient_1)" fill-rule="evenodd" stroke="none" />
</svg>