<?xml version="1.0" encoding="utf-8"?>
<svg width="10px" height="9px" viewbox="0 0 10 9" version="1.1" xmlns:xlink="http://www.w3.org/1999/xlink" xmlns="http://www.w3.org/2000/svg">
  <defs>
    <linearGradient x1="0.2544715" y1="0.22262877" x2="0.8753693" y2="1.091658" id="gradient_1">
      <stop offset="0" stop-color="#6B32FF" />
      <stop offset="0.25027123" stop-color="#3023AE" />
      <stop offset="1" stop-color="#C96DD8" />
    </linearGradient>
  </defs>
  <path d="M9.67403 7.00325C9.50927 6.80128 9.29197 6.67433 9.0613 6.62217C8.67209 6.53434 8.3434 6.27522 8.14223 5.93111L8.09054 5.84274C7.8866 5.49403 7.84136 5.07835 7.94974 4.68936C8.0529 4.31948 7.95888 3.90633 7.66753 3.61538C7.51751 3.46557 7.33501 3.368 7.14259 3.32266C6.75223 3.23069 6.4174 2.98162 6.21508 2.63567L6.16254 2.54576C5.95906 2.19782 5.91282 1.78306 6.02097 1.39492C6.13058 1.00179 6.01767 0.5598 5.68169 0.26762C5.26943 -0.0909889 4.64226 -0.0889178 4.23208 0.272146C3.75046 0.69634 3.73318 1.43089 4.18023 1.87741C4.33001 2.02691 4.51206 2.12441 4.70409 2.1699C5.09384 2.26218 5.42821 2.51102 5.63022 2.85651L5.68453 2.94948C5.88785 3.29719 5.93379 3.71157 5.82625 4.09963C5.72386 4.46914 5.81811 4.88144 6.10892 5.17193C6.2584 5.32121 6.44014 5.41855 6.63171 5.46411C7.02084 5.55678 7.35467 5.80546 7.55646 6.15049L7.61399 6.24883C7.81754 6.59709 7.86317 7.01208 7.75525 7.40068C7.65247 7.77033 7.74657 8.1831 8.03761 8.47374C8.48497 8.92041 9.22107 8.90292 9.64569 8.4212C9.99749 8.02209 10.0103 7.41548 9.67403 7.00325ZM5.81665 7.00342C5.6525 6.80206 5.43612 6.67519 5.20622 6.62272C4.81609 6.53374 4.48641 6.27447 4.28477 5.92936L4.23807 5.84927C4.0316 5.49596 3.98812 5.07575 4.09466 4.68078C4.2002 4.28988 4.08644 3.85226 3.75315 3.56223C3.34082 3.20355 2.71357 3.20554 2.30347 3.56676C1.82177 3.99087 1.80449 4.72543 2.25154 5.17194C2.39864 5.31884 2.57692 5.41549 2.76519 5.46198C3.16016 5.55947 3.50052 5.80877 3.70553 6.15971L3.75231 6.23995C3.95886 6.59357 4.0018 7.01393 3.89541 7.40928C3.79655 7.77679 3.89142 8.18533 4.18023 8.47375C4.62751 8.92042 5.36361 8.90293 5.78823 8.42121C6.14003 8.0221 6.15294 7.41565 5.81665 7.00342ZM2.20422 7.69554C2.20422 8.30338 1.71077 8.79615 1.10211 8.79615C0.493445 8.79615 0 8.30338 0 7.69554C0 7.08763 0.493445 6.59494 1.10211 6.59494C1.71077 6.59494 2.20422 7.08763 2.20422 7.69554L2.20422 7.69554Z" id="Fill-1" fill="url(#gradient_1)" fill-rule="evenodd" stroke="none" />
</svg>