<?xml version="1.0" encoding="utf-8"?>
<svg width="4px" height="16px" viewbox="0 0 4 16" version="1.1" xmlns:xlink="http://www.w3.org/1999/xlink" xmlns="http://www.w3.org/2000/svg">
  <g id="more" transform="matrix(-4.371139E-08 -1 1 -4.371139E-08 0 16)">
    <path d="M2 12C3.1 12 4 12.9 4 14C4 15.1 3.1 16 2 16C0.9 16 0 15.1 0 14C0 12.9 0.9 12 2 12L2 12ZM2 10C0.9 10 0 9.1 0 8C0 6.9 0.9 6 2 6C3.1 6 4 6.9 4 8C4 9.1 3.1 10 2 10L2 10ZM2 4C0.9 4 0 3.1 0 2C0 0.9 0.9 0 2 0C3.1 0 4 0.9 4 2C4 3.1 3.1 4 2 4L2 4Z" transform="matrix(-4.371139E-08 1 1 4.371139E-08 0 0)" id="Shape" fill="#FFFFFF" fill-rule="evenodd" stroke="none" />
  </g>
</svg>