<?xml version="1.0" encoding="utf-8"?>
<svg width="16px" height="17px" viewbox="0 0 16 17" version="1.1" xmlns:xlink="http://www.w3.org/1999/xlink" xmlns="http://www.w3.org/2000/svg">
  <path d="M15.7963 13.829L12.7563 10.789C13.4861 9.68915 13.9132 8.37226 13.9132 6.9566C13.9132 3.12073 10.7925 0 6.9566 0C3.12073 0 0 3.12073 0 6.9566C0 10.7925 3.12073 13.9132 6.9566 13.9132C8.37226 13.9132 9.68915 13.4861 10.789 12.7563L13.8283 15.7963C14.1003 16.0683 14.5407 16.0683 14.812 15.7963L15.7956 14.8127C16.0677 14.5407 16.0683 14.1003 15.7963 13.829ZM1.39136 6.95657C1.39136 3.88802 3.88808 1.3913 6.95663 1.3913C10.0252 1.3913 12.5219 3.88802 12.5219 6.95657C12.5219 10.0251 10.0252 12.5219 6.95663 12.5219C3.88808 12.5219 1.39136 10.0251 1.39136 6.95657Z" id="Shape" fill="#8492A6" fill-rule="evenodd" stroke="none" />
</svg>